<svg xmlns="http://www.w3.org/2000/svg" viewBox="0 0 400 500" role="img"><defs><radialGradient id="bg" cx="50%" cy="40%" r="75%"><stop offset="0" stop-color="#efe6d4"/><stop offset="1" stop-color="#e2d4b8"/></radialGradient>
<linearGradient id="wood" x1="0" x2="1"><stop offset="0" stop-color="#4a2316"/><stop offset=".5" stop-color="#7a3d22"/><stop offset="1" stop-color="#4a2316"/></linearGradient>
<linearGradient id="oak" x1="0" x2="1"><stop offset="0" stop-color="#6b4a26"/><stop offset=".5" stop-color="#9a7040"/><stop offset="1" stop-color="#6b4a26"/></linearGradient>
<linearGradient id="brass" x1="0" x2="1"><stop offset="0" stop-color="#9c7a2e"/><stop offset=".45" stop-color="#e3c46e"/><stop offset="1" stop-color="#9c7a2e"/></linearGradient>
<linearGradient id="glass" x1="0" x2="1"><stop offset="0" stop-color="#fff" stop-opacity=".35"/><stop offset=".3" stop-color="#fff" stop-opacity=".05"/><stop offset="1" stop-color="#fff" stop-opacity=".2"/></linearGradient></defs>
<rect width="400" height="500" fill="url(#bg)"/><ellipse cx="200" cy="470" rx="150" ry="10" fill="#000" opacity=".12"/>
<path d="M120 150 Q200 70 280 150 Z" fill="url(#wood)"/>
<rect x="185" y="88" width="30" height="12" rx="6" fill="url(#brass)"/>
<circle cx="125" cy="140" r="7" fill="url(#brass)"/><circle cx="275" cy="140" r="7" fill="url(#brass)"/>
<rect x="110" y="150" width="180" height="230" rx="4" fill="url(#wood)" stroke="#2a130b" stroke-width="2"/>
<rect x="124" y="164" width="152" height="152" fill="#2a130b"/>
<circle cx="200" cy="240" r="66" fill="url(#brass)"/><circle cx="200" cy="240" r="60.720000000000006" fill="#e8e4da"/><circle cx="200" cy="240" r="51.480000000000004" fill="none" stroke="#2a2118" stroke-width="0.792"/><circle cx="200" cy="240" r="42.24" fill="none" stroke="#2a2118" stroke-width="0.792"/><line x1="200" y1="188.51999999999998" x2="200" y2="193.8" stroke="#2a2118" stroke-width="1.6500000000000001"/><line x1="205.3811252890188" y1="188.80201282644128" x2="205.17415893174885" y2="190.77116617927047" stroke="#2a2118" stroke-width="0.66"/><line x1="210.70329384329824" y1="189.64496151422367" x2="210.2916286954791" y2="191.5816937636766" stroke="#2a2118" stroke-width="0.66"/><line x1="215.90819487042228" y1="191.03961054112548" x2="215.29634122155989" y2="192.9227024433899" stroke="#2a2118" stroke-width="0.66"/><line x1="220.9388023855422" y1="192.9706798405589" x2="220.13346383225212" y2="194.77949984669127" stroke="#2a2118" stroke-width="0.66"/><line x1="225.74" y1="195.4170122131771" x2="223.1" y2="199.98962634515894" stroke="#2a2118" stroke-width="1.6500000000000001"/><line x1="230.2591847880165" y1="198.3518051295777" x2="229.09536998847742" y2="199.95365877844011" stroke="#2a2118" stroke-width="0.66"/><line x1="234.44684361535403" y1="201.74290438442375" x2="233.12196501476348" y2="203.214331138869" stroke="#2a2118" stroke-width="0.66"/><line x1="238.25709561557625" y1="205.55315638464597" x2="236.785668861131" y2="206.87803498523652" stroke="#2a2118" stroke-width="0.66"/><line x1="241.6481948704223" y1="209.7408152119835" x2="240.04634122155989" y2="210.90463001152258" stroke="#2a2118" stroke-width="0.66"/><line x1="244.5829877868229" y1="214.26" x2="240.01037365484106" y2="216.9" stroke="#2a2118" stroke-width="1.6500000000000001"/><line x1="247.0293201594411" y1="219.0611976144578" x2="245.22050015330873" y2="219.86653616774788" stroke="#2a2118" stroke-width="0.66"/><line x1="248.96038945887452" y1="224.0918051295777" x2="247.0772975566101" y2="224.70365877844011" stroke="#2a2118" stroke-width="0.66"/><line x1="250.35503848577633" y1="229.29670615670176" x2="248.4183062363234" y2="229.7083713045209" stroke="#2a2118" stroke-width="0.66"/><line x1="251.19798717355872" y1="234.6188747109812" x2="249.22883382072953" y2="234.82584106825115" stroke="#2a2118" stroke-width="0.66"/><line x1="251.48000000000002" y1="240" x2="246.2" y2="240" stroke="#2a2118" stroke-width="1.6500000000000001"/><line x1="251.19798717355872" y1="245.3811252890188" x2="249.22883382072953" y2="245.17415893174885" stroke="#2a2118" stroke-width="0.66"/><line x1="250.35503848577633" y1="250.70329384329824" x2="248.4183062363234" y2="250.29162869547906" stroke="#2a2118" stroke-width="0.66"/><line x1="248.96038945887452" y1="255.90819487042228" x2="247.07729755661012" y2="255.29634122155989" stroke="#2a2118" stroke-width="0.66"/><line x1="247.0293201594411" y1="260.9388023855422" x2="245.22050015330876" y2="260.1334638322521" stroke="#2a2118" stroke-width="0.66"/><line x1="244.5829877868229" y1="265.74" x2="240.01037365484106" y2="263.09999999999997" stroke="#2a2118" stroke-width="1.6500000000000001"/><line x1="241.6481948704223" y1="270.2591847880165" x2="240.04634122155989" y2="269.0953699884774" stroke="#2a2118" stroke-width="0.66"/><line x1="238.25709561557628" y1="274.446843615354" x2="236.78566886113103" y2="273.1219650147635" stroke="#2a2118" stroke-width="0.66"/><line x1="234.446843615354" y1="278.25709561557625" x2="233.12196501476348" y2="276.785668861131" stroke="#2a2118" stroke-width="0.66"/><line x1="230.2591847880165" y1="281.6481948704223" x2="229.09536998847742" y2="280.0463412215599" stroke="#2a2118" stroke-width="0.66"/><line x1="225.74" y1="284.5829877868229" x2="223.1" y2="280.0103736548411" stroke="#2a2118" stroke-width="1.6500000000000001"/><line x1="220.9388023855422" y1="287.0293201594411" x2="220.1334638322521" y2="285.22050015330876" stroke="#2a2118" stroke-width="0.66"/><line x1="215.9081948704223" y1="288.9603894588745" x2="215.2963412215599" y2="287.0772975566101" stroke="#2a2118" stroke-width="0.66"/><line x1="210.70329384329824" y1="290.35503848577633" x2="210.2916286954791" y2="288.41830623632336" stroke="#2a2118" stroke-width="0.66"/><line x1="205.38112528901883" y1="291.1979871735587" x2="205.17415893174885" y2="289.2288338207295" stroke="#2a2118" stroke-width="0.66"/><line x1="200" y1="291.48" x2="200" y2="286.2" stroke="#2a2118" stroke-width="1.6500000000000001"/><line x1="194.6188747109812" y1="291.1979871735587" x2="194.82584106825115" y2="289.2288338207295" stroke="#2a2118" stroke-width="0.66"/><line x1="189.29670615670176" y1="290.35503848577633" x2="189.70837130452094" y2="288.41830623632336" stroke="#2a2118" stroke-width="0.66"/><line x1="184.0918051295777" y1="288.9603894588745" x2="184.7036587784401" y2="287.0772975566101" stroke="#2a2118" stroke-width="0.66"/><line x1="179.06119761445783" y1="287.0293201594411" x2="179.8665361677479" y2="285.22050015330876" stroke="#2a2118" stroke-width="0.66"/><line x1="174.26" y1="284.5829877868229" x2="176.9" y2="280.01037365484103" stroke="#2a2118" stroke-width="1.6500000000000001"/><line x1="169.7408152119835" y1="281.6481948704223" x2="170.90463001152258" y2="280.0463412215599" stroke="#2a2118" stroke-width="0.66"/><line x1="165.55315638464597" y1="278.25709561557625" x2="166.87803498523652" y2="276.785668861131" stroke="#2a2118" stroke-width="0.66"/><line x1="161.74290438442375" y1="274.44684361535406" x2="163.214331138869" y2="273.1219650147635" stroke="#2a2118" stroke-width="0.66"/><line x1="158.3518051295777" y1="270.2591847880165" x2="159.95365877844011" y2="269.09536998847744" stroke="#2a2118" stroke-width="0.66"/><line x1="155.4170122131771" y1="265.74" x2="159.98962634515894" y2="263.1" stroke="#2a2118" stroke-width="1.6500000000000001"/><line x1="152.9706798405589" y1="260.9388023855422" x2="154.77949984669124" y2="260.1334638322521" stroke="#2a2118" stroke-width="0.66"/><line x1="151.03961054112548" y1="255.9081948704223" x2="152.9227024433899" y2="255.2963412215599" stroke="#2a2118" stroke-width="0.66"/><line x1="149.6449615142237" y1="250.70329384329827" x2="151.58169376367664" y2="250.29162869547912" stroke="#2a2118" stroke-width="0.66"/><line x1="148.80201282644128" y1="245.38112528901885" x2="150.77116617927047" y2="245.17415893174888" stroke="#2a2118" stroke-width="0.66"/><line x1="148.51999999999998" y1="240" x2="153.8" y2="240" stroke="#2a2118" stroke-width="1.6500000000000001"/><line x1="148.80201282644128" y1="234.61887471098117" x2="150.77116617927047" y2="234.82584106825112" stroke="#2a2118" stroke-width="0.66"/><line x1="149.6449615142237" y1="229.29670615670173" x2="151.58169376367664" y2="229.7083713045209" stroke="#2a2118" stroke-width="0.66"/><line x1="151.03961054112548" y1="224.09180512957772" x2="152.92270244338988" y2="224.70365877844011" stroke="#2a2118" stroke-width="0.66"/><line x1="152.9706798405589" y1="219.06119761445783" x2="154.77949984669124" y2="219.8665361677479" stroke="#2a2118" stroke-width="0.66"/><line x1="155.4170122131771" y1="214.26" x2="159.98962634515894" y2="216.9" stroke="#2a2118" stroke-width="1.6500000000000001"/><line x1="158.3518051295777" y1="209.7408152119835" x2="159.9536587784401" y2="210.90463001152258" stroke="#2a2118" stroke-width="0.66"/><line x1="161.74290438442375" y1="205.55315638464597" x2="163.214331138869" y2="206.8780349852365" stroke="#2a2118" stroke-width="0.66"/><line x1="165.55315638464594" y1="201.74290438442375" x2="166.8780349852365" y2="203.214331138869" stroke="#2a2118" stroke-width="0.66"/><line x1="169.74081521198346" y1="198.3518051295777" x2="170.90463001152256" y2="199.95365877844011" stroke="#2a2118" stroke-width="0.66"/><line x1="174.26" y1="195.41701221317712" x2="176.89999999999998" y2="199.98962634515897" stroke="#2a2118" stroke-width="1.6500000000000001"/><line x1="179.0611976144578" y1="192.9706798405589" x2="179.86653616774788" y2="194.77949984669124" stroke="#2a2118" stroke-width="0.66"/><line x1="184.0918051295777" y1="191.03961054112548" x2="184.7036587784401" y2="192.9227024433899" stroke="#2a2118" stroke-width="0.66"/><line x1="189.29670615670173" y1="189.6449615142237" x2="189.70837130452088" y2="191.58169376367664" stroke="#2a2118" stroke-width="0.66"/><line x1="194.61887471098115" y1="188.80201282644128" x2="194.82584106825112" y2="190.77116617927047" stroke="#2a2118" stroke-width="0.66"/><text x="200" y="205.01999999999998" font-family="Georgia,serif" font-size="9.9" fill="#2a2118" text-anchor="middle" dominant-baseline="central">XII</text><text x="217.49" y="209.70643137562033" font-family="Georgia,serif" font-size="9.9" fill="#2a2118" text-anchor="middle" dominant-baseline="central">I</text><text x="230.29356862437967" y="222.51" font-family="Georgia,serif" font-size="9.9" fill="#2a2118" text-anchor="middle" dominant-baseline="central">II</text><text x="234.98000000000002" y="240" font-family="Georgia,serif" font-size="9.9" fill="#2a2118" text-anchor="middle" dominant-baseline="central">III</text><text x="230.29356862437967" y="257.49" font-family="Georgia,serif" font-size="9.9" fill="#2a2118" text-anchor="middle" dominant-baseline="central">IIII</text><text x="217.49" y="270.29356862437965" font-family="Georgia,serif" font-size="9.9" fill="#2a2118" text-anchor="middle" dominant-baseline="central">V</text><text x="200" y="274.98" font-family="Georgia,serif" font-size="9.9" fill="#2a2118" text-anchor="middle" dominant-baseline="central">VI</text><text x="182.51" y="270.29356862437965" font-family="Georgia,serif" font-size="9.9" fill="#2a2118" text-anchor="middle" dominant-baseline="central">VII</text><text x="169.70643137562033" y="257.49" font-family="Georgia,serif" font-size="9.9" fill="#2a2118" text-anchor="middle" dominant-baseline="central">VIII</text><text x="165.01999999999998" y="240" font-family="Georgia,serif" font-size="9.9" fill="#2a2118" text-anchor="middle" dominant-baseline="central">IX</text><text x="169.70643137562033" y="222.51" font-family="Georgia,serif" font-size="9.9" fill="#2a2118" text-anchor="middle" dominant-baseline="central">X</text><text x="182.51" y="209.70643137562035" font-family="Georgia,serif" font-size="9.9" fill="#2a2118" text-anchor="middle" dominant-baseline="central">XI</text><g transform="rotate(55.00000000000001 200 240)"><path d="M198.02 240 L200 212.28 L201.98 240 Z" fill="#1b140d"/></g><g transform="rotate(300 200 240)"><path d="M198.68 240 L200 195.12 L201.32 240 Z" fill="#1b140d"/></g><circle cx="200" cy="240" r="2.64" fill="#1b140d"/>
<path d="M140 335 h120 M150 350 h100" stroke="url(#brass)" stroke-width="3"/>
<rect x="100" y="380" width="200" height="22" fill="url(#wood)" stroke="#2a130b" stroke-width="2"/>
<rect x="110" y="402" width="24" height="16" fill="url(#brass)"/><rect x="266" y="402" width="24" height="16" fill="url(#brass)"/></svg>
