<svg xmlns="http://www.w3.org/2000/svg" viewBox="0 0 400 500" role="img"><defs><radialGradient id="bg" cx="50%" cy="40%" r="75%"><stop offset="0" stop-color="#efe6d4"/><stop offset="1" stop-color="#e2d4b8"/></radialGradient>
<linearGradient id="wood" x1="0" x2="1"><stop offset="0" stop-color="#4a2316"/><stop offset=".5" stop-color="#7a3d22"/><stop offset="1" stop-color="#4a2316"/></linearGradient>
<linearGradient id="oak" x1="0" x2="1"><stop offset="0" stop-color="#6b4a26"/><stop offset=".5" stop-color="#9a7040"/><stop offset="1" stop-color="#6b4a26"/></linearGradient>
<linearGradient id="brass" x1="0" x2="1"><stop offset="0" stop-color="#9c7a2e"/><stop offset=".45" stop-color="#e3c46e"/><stop offset="1" stop-color="#9c7a2e"/></linearGradient>
<linearGradient id="glass" x1="0" x2="1"><stop offset="0" stop-color="#fff" stop-opacity=".35"/><stop offset=".3" stop-color="#fff" stop-opacity=".05"/><stop offset="1" stop-color="#fff" stop-opacity=".2"/></linearGradient></defs>
<ellipse cx="200" cy="470" rx="150" ry="10" fill="#000" opacity=".12"/>
<path d="M80 250 L320 250 L320 420 L80 420 Z" fill="url(#wood)" stroke="#2a130b" stroke-width="2"/>
<path d="M80 250 L320 250 L280 210 L120 210 Z" fill="#5c2c18"/>
<rect x="80" y="250" width="240" height="8" fill="url(#brass)"/><rect x="80" y="412" width="240" height="8" fill="url(#brass)"/>
<rect x="80" y="250" width="8" height="170" fill="url(#brass)"/><rect x="312" y="250" width="8" height="170" fill="url(#brass)"/>
<circle cx="200" cy="230" r="92" fill="url(#brass)"/>
<circle cx="200" cy="230" r="84" fill="url(#brass)"/><circle cx="200" cy="230" r="77.28" fill="#e9e6df"/><circle cx="200" cy="230" r="65.52" fill="none" stroke="#2a2118" stroke-width="1.008"/><circle cx="200" cy="230" r="53.76" fill="none" stroke="#2a2118" stroke-width="1.008"/><line x1="200" y1="164.48000000000002" x2="200" y2="171.2" stroke="#2a2118" stroke-width="2.1"/><line x1="206.84870491329664" y1="164.83892541547073" x2="206.58529318586216" y2="167.34512059179877" stroke="#2a2118" stroke-width="0.84"/><line x1="213.6223739823796" y1="165.91176919992105" x2="213.09843652151883" y2="168.37670115377023" stroke="#2a2118" stroke-width="0.84"/><line x1="220.24679347144655" y1="167.68677705234154" x2="219.46807064562168" y2="170.08343947340532" stroke="#2a2118" stroke-width="0.84"/><line x1="226.64938485432643" y1="170.1445016152568" x2="225.62440851377542" y2="172.44663616851614" stroke="#2a2118" stroke-width="0.84"/><line x1="232.76" y1="173.2580155440436" x2="229.4" y2="179.077706257475" stroke="#2a2118" stroke-width="2.1"/><line x1="238.51168973020285" y1="176.99320652855346" x2="237.0304708944258" y2="179.03192935437832" stroke="#2a2118" stroke-width="0.84"/><line x1="243.8414373286324" y1="181.30915103472114" x2="242.15522820060806" y2="183.18187599492416" stroke="#2a2118" stroke-width="0.84"/><line x1="248.69084896527886" y1="186.1585626713676" x2="246.81812400507584" y2="187.84477179939194" stroke="#2a2118" stroke-width="0.84"/><line x1="253.00679347144654" y1="191.48831026979715" x2="250.96807064562168" y2="192.9695291055742" stroke="#2a2118" stroke-width="0.84"/><line x1="256.7419844559564" y1="197.24" x2="250.92229374252497" y2="200.6" stroke="#2a2118" stroke-width="2.1"/><line x1="259.8554983847432" y1="203.35061514567357" x2="257.55336383148386" y2="204.37559148622458" stroke="#2a2118" stroke-width="0.84"/><line x1="262.31322294765846" y1="209.75320652855345" x2="259.91656052659465" y2="210.53192935437832" stroke="#2a2118" stroke-width="0.84"/><line x1="264.0882308000789" y1="216.37762601762043" x2="261.6232988462298" y2="216.90156347848117" stroke="#2a2118" stroke-width="0.84"/><line x1="265.1610745845293" y1="223.15129508670336" x2="262.6548794082012" y2="223.41470681413784" stroke="#2a2118" stroke-width="0.84"/><line x1="265.52" y1="230" x2="258.8" y2="230" stroke="#2a2118" stroke-width="2.1"/><line x1="265.1610745845293" y1="236.84870491329664" x2="262.6548794082012" y2="236.58529318586216" stroke="#2a2118" stroke-width="0.84"/><line x1="264.0882308000789" y1="243.62237398237957" x2="261.6232988462298" y2="243.09843652151883" stroke="#2a2118" stroke-width="0.84"/><line x1="262.31322294765846" y1="250.24679347144655" x2="259.9165605265947" y2="249.46807064562168" stroke="#2a2118" stroke-width="0.84"/><line x1="259.8554983847432" y1="256.6493848543264" x2="257.55336383148386" y2="255.6244085137754" stroke="#2a2118" stroke-width="0.84"/><line x1="256.7419844559564" y1="262.76" x2="250.922293742525" y2="259.4" stroke="#2a2118" stroke-width="2.1"/><line x1="253.00679347144654" y1="268.5116897302028" x2="250.96807064562168" y2="267.0304708944258" stroke="#2a2118" stroke-width="0.84"/><line x1="248.6908489652789" y1="273.84143732863237" x2="246.81812400507584" y2="272.15522820060806" stroke="#2a2118" stroke-width="0.84"/><line x1="243.84143732863237" y1="278.69084896527886" x2="242.15522820060806" y2="276.81812400507584" stroke="#2a2118" stroke-width="0.84"/><line x1="238.51168973020285" y1="283.00679347144654" x2="237.03047089442583" y2="280.96807064562165" stroke="#2a2118" stroke-width="0.84"/><line x1="232.76" y1="286.7419844559564" x2="229.4" y2="280.92229374252497" stroke="#2a2118" stroke-width="2.1"/><line x1="226.64938485432643" y1="289.8554983847432" x2="225.6244085137754" y2="287.55336383148386" stroke="#2a2118" stroke-width="0.84"/><line x1="220.24679347144655" y1="292.31322294765846" x2="219.4680706456217" y2="289.91656052659465" stroke="#2a2118" stroke-width="0.84"/><line x1="213.6223739823796" y1="294.0882308000789" x2="213.09843652151883" y2="291.6232988462298" stroke="#2a2118" stroke-width="0.84"/><line x1="206.84870491329667" y1="295.1610745845293" x2="206.58529318586218" y2="292.6548794082012" stroke="#2a2118" stroke-width="0.84"/><line x1="200" y1="295.52" x2="200" y2="288.8" stroke="#2a2118" stroke-width="2.1"/><line x1="193.15129508670336" y1="295.1610745845293" x2="193.41470681413784" y2="292.6548794082012" stroke="#2a2118" stroke-width="0.84"/><line x1="186.37762601762043" y1="294.0882308000789" x2="186.9015634784812" y2="291.6232988462298" stroke="#2a2118" stroke-width="0.84"/><line x1="179.75320652855342" y1="292.31322294765846" x2="180.5319293543783" y2="289.91656052659465" stroke="#2a2118" stroke-width="0.84"/><line x1="173.3506151456736" y1="289.8554983847432" x2="174.3755914862246" y2="287.55336383148386" stroke="#2a2118" stroke-width="0.84"/><line x1="167.24" y1="286.7419844559564" x2="170.6" y2="280.92229374252497" stroke="#2a2118" stroke-width="2.1"/><line x1="161.48831026979718" y1="283.00679347144654" x2="162.9695291055742" y2="280.9680706456217" stroke="#2a2118" stroke-width="0.84"/><line x1="156.1585626713676" y1="278.69084896527886" x2="157.84477179939194" y2="276.81812400507584" stroke="#2a2118" stroke-width="0.84"/><line x1="151.30915103472114" y1="273.8414373286324" x2="153.18187599492418" y2="272.15522820060806" stroke="#2a2118" stroke-width="0.84"/><line x1="146.99320652855346" y1="268.5116897302029" x2="149.03192935437832" y2="267.03047089442583" stroke="#2a2118" stroke-width="0.84"/><line x1="143.2580155440436" y1="262.76000000000005" x2="149.07770625747503" y2="259.40000000000003" stroke="#2a2118" stroke-width="2.1"/><line x1="140.1445016152568" y1="256.6493848543264" x2="142.44663616851614" y2="255.6244085137754" stroke="#2a2118" stroke-width="0.84"/><line x1="137.68677705234154" y1="250.24679347144655" x2="140.08343947340532" y2="249.4680706456217" stroke="#2a2118" stroke-width="0.84"/><line x1="135.91176919992108" y1="243.62237398237963" x2="138.37670115377026" y2="243.09843652151886" stroke="#2a2118" stroke-width="0.84"/><line x1="134.83892541547073" y1="236.8487049132967" x2="137.34512059179877" y2="236.5852931858622" stroke="#2a2118" stroke-width="0.84"/><line x1="134.48000000000002" y1="230" x2="141.2" y2="230" stroke="#2a2118" stroke-width="2.1"/><line x1="134.83892541547073" y1="223.15129508670333" x2="137.34512059179877" y2="223.41470681413782" stroke="#2a2118" stroke-width="0.84"/><line x1="135.91176919992108" y1="216.3776260176204" x2="138.37670115377026" y2="216.90156347848117" stroke="#2a2118" stroke-width="0.84"/><line x1="137.68677705234154" y1="209.75320652855345" x2="140.08343947340532" y2="210.53192935437832" stroke="#2a2118" stroke-width="0.84"/><line x1="140.1445016152568" y1="203.3506151456736" x2="142.44663616851614" y2="204.3755914862246" stroke="#2a2118" stroke-width="0.84"/><line x1="143.2580155440436" y1="197.24" x2="149.07770625747503" y2="200.6" stroke="#2a2118" stroke-width="2.1"/><line x1="146.99320652855343" y1="191.48831026979718" x2="149.0319293543783" y2="192.9695291055742" stroke="#2a2118" stroke-width="0.84"/><line x1="151.30915103472114" y1="186.1585626713676" x2="153.18187599492418" y2="187.8447717993919" stroke="#2a2118" stroke-width="0.84"/><line x1="156.15856267136758" y1="181.30915103472117" x2="157.84477179939188" y2="183.1818759949242" stroke="#2a2118" stroke-width="0.84"/><line x1="161.48831026979715" y1="176.99320652855346" x2="162.96952910557417" y2="179.03192935437832" stroke="#2a2118" stroke-width="0.84"/><line x1="167.23999999999998" y1="173.2580155440436" x2="170.59999999999997" y2="179.07770625747503" stroke="#2a2118" stroke-width="2.1"/><line x1="173.35061514567357" y1="170.1445016152568" x2="174.37559148622458" y2="172.44663616851614" stroke="#2a2118" stroke-width="0.84"/><line x1="179.75320652855345" y1="167.68677705234154" x2="180.5319293543783" y2="170.08343947340532" stroke="#2a2118" stroke-width="0.84"/><line x1="186.37762601762037" y1="165.91176919992108" x2="186.90156347848114" y2="168.37670115377026" stroke="#2a2118" stroke-width="0.84"/><line x1="193.1512950867033" y1="164.83892541547073" x2="193.4147068141378" y2="167.34512059179877" stroke="#2a2118" stroke-width="0.84"/><g transform="rotate(182.5 200 230)"><path d="M197.48 230 L200 194.72 L202.52 230 Z" fill="#1b140d"/></g><g transform="rotate(30 200 230)"><path d="M198.32 230 L200 172.88 L201.68 230 Z" fill="#1b140d"/></g><circle cx="200" cy="230" r="3.36" fill="#1b140d"/>
<text x="200" y="182" font-family="Georgia,serif" font-size="13" text-anchor="middle" dominant-baseline="central" fill="#2a2118">12</text><text x="224" y="188.43078061834694" font-family="Georgia,serif" font-size="13" text-anchor="middle" dominant-baseline="central" fill="#2a2118">1</text><text x="241.56921938165306" y="206" font-family="Georgia,serif" font-size="13" text-anchor="middle" dominant-baseline="central" fill="#2a2118">2</text><text x="248" y="230" font-family="Georgia,serif" font-size="13" text-anchor="middle" dominant-baseline="central" fill="#2a2118">3</text><text x="241.56921938165306" y="254" font-family="Georgia,serif" font-size="13" text-anchor="middle" dominant-baseline="central" fill="#2a2118">4</text><text x="224" y="271.56921938165306" font-family="Georgia,serif" font-size="13" text-anchor="middle" dominant-baseline="central" fill="#2a2118">5</text><text x="200" y="278" font-family="Georgia,serif" font-size="13" text-anchor="middle" dominant-baseline="central" fill="#2a2118">6</text><text x="176" y="271.56921938165306" font-family="Georgia,serif" font-size="13" text-anchor="middle" dominant-baseline="central" fill="#2a2118">7</text><text x="158.43078061834694" y="254.00000000000003" font-family="Georgia,serif" font-size="13" text-anchor="middle" dominant-baseline="central" fill="#2a2118">8</text><text x="152" y="230" font-family="Georgia,serif" font-size="13" text-anchor="middle" dominant-baseline="central" fill="#2a2118">9</text><text x="158.43078061834694" y="206" font-family="Georgia,serif" font-size="13" text-anchor="middle" dominant-baseline="central" fill="#2a2118">10</text><text x="175.99999999999997" y="188.43078061834694" font-family="Georgia,serif" font-size="13" text-anchor="middle" dominant-baseline="central" fill="#2a2118">11</text>
<circle cx="200" cy="270" r="14" fill="none" stroke="#2a2118"/><circle cx="200" cy="190" r="12" fill="none" stroke="#2a2118"/></svg>
